<?xml version="1.0" encoding="UTF-8"?>
<svg width="256px" height="283px" viewBox="0 0 256 283" version="1.1" xmlns="http://www.w3.org/2000/svg" xmlns:xlink="http://www.w3.org/1999/xlink" preserveAspectRatio="xMidYMid">
		<g>
				<path d="M239.972557,139.203 C239.972557,124.669 228.190557,112.887 213.656557,112.887 C212.721557,112.887 211.799557,112.937 210.890557,113.032 L247.035557,6.427 L93.431557,6.427 L129.525557,112.94 C128.996557,112.908 128.464557,112.887 127.926557,112.887 C113.392557,112.887 101.610557,124.669 101.610557,139.203 C101.610557,150.951 109.309557,160.897 119.936557,164.281 C114.323557,174.003 107.261557,182.759 99.243557,190.323 C88.340557,200.609 75.862557,208.408 62.367557,213.214 C46.299557,204.96 38.711557,186.602 45.558557,170.507 C46.331557,168.69 47.120557,166.847 47.875557,165.013 C59.515557,162.296 68.189557,151.86 68.189557,139.392 C68.189557,124.858 56.407557,113.076 41.873557,113.076 C27.338557,113.076 15.556557,124.858 15.556557,139.392 C15.556557,148.305 19.991557,156.176 26.769557,160.937 C20.255557,175.768 10.681557,191.288 7.69855701,209.276 C4.12355701,230.835 7.68755701,253.719 26.332557,266.642 C69.756557,296.738 116.892557,247.985 166.591557,235.729 C184.602557,231.287 204.373557,232.003 220.242557,222.812 C232.159557,215.91 240.015557,204.472 242.245557,191.63 C244.447557,178.944 241.236557,166.313 233.852557,156.071 C237.671557,151.503 239.972557,145.623 239.972557,139.203" fill="#99425B"></path>
				<path d="M154.227557,139.203 C154.227557,139.203 154.227557,139.203 154.227557,139.203 C154.227557,147.807 147.647557,154.387 139.043557,154.387 C130.439557,154.387 123.859557,147.807 123.859557,139.203 C123.859557,139.203 123.859557,139.203 123.859557,139.203 C123.859557,139.203 123.859557,139.203 123.859557,139.203 C123.859557,130.599 130.439557,124.019 139.043557,124.019 C147.647557,124.019 154.227557,130.599 154.227557,139.203 C154.227557,139.203 154.227557,139.203 154.227557,139.203 M232.607557,139.203 C232.607557,139.203 232.607557,139.203 232.607557,139.203 C232.607557,147.807 226.027557,154.387 217.423557,154.387 C208.819557,154.387 202.239557,147.807 202.239557,139.203 C202.239557,139.203 202.239557,139.203 202.239557,139.203 C202.239557,139.203 202.239557,139.203 202.239557,139.203 C202.239557,130.599 208.819557,124.019 217.423557,124.019 C226.027557,124.019 232.607557,130.599 232.607557,139.203 C232.607557,139.203 232.607557,139.203 232.607557,139.203 M75.847557,139.203 C75.847557,139.203 75.847557,139.203 75.847557,139.203 C75.847557,147.807 69.267557,154.387 60.663557,154.387 C52.059557,154.387 45.479557,147.807 45.479557,139.203 C45.479557,139.203 45.479557,139.203 45.479557,139.203 C45.479557,139.203 45.479557,139.203 45.479557,139.203 C45.479557,130.599 52.059557,124.019 60.663557,124.019 C69.267557,124.019 75.847557,130.599 75.847557,139.203 C75.847557,139.203 75.847557,139.203 75.847557,139.203" fill="#FFFFFF"></path>
		</g>
</svg>
