<?xml version="1.0" encoding="UTF-8"?>
<svg width="256px" height="256px" viewBox="0 0 256 256" version="1.1" xmlns="http://www.w3.org/2000/svg" xmlns:xlink="http://www.w3.org/1999/xlink" preserveAspectRatio="xMidYMid">
    <g>
        <path d="M128 0C57.308 0 0 57.308 0 128s57.308 128 128 128 128-57.308 128-128S198.692 0 128 0Zm64.42 178.087c-2.083 3.61-6.719 4.858-10.329 2.775l-54.091-31.235-54.091 31.235c-3.61 2.083-8.246.835-10.329-2.775-2.083-3.61-.835-8.246 2.775-10.329l54.091-31.235V73.913c0-4.164 3.379-7.543 7.543-7.543 4.164 0 7.543 3.379 7.543 7.543v62.61l54.091 31.235c3.61 2.083 4.858 6.719 2.775 10.329h.022Z" fill="#000000"/>
    </g>
</svg>
