<?xml version="1.0" encoding="UTF-8"?>
<svg width="256px" height="310px" viewBox="0 0 256 310" version="1.1" xmlns="http://www.w3.org/2000/svg" xmlns:xlink="http://www.w3.org/1999/xlink" preserveAspectRatio="xMidYMid">
    <g>
        <path d="M254.312882,235.518775 L148.000961,9.74987264 C145.309805,4.08935083 139.731924,0.359884549 133.472618,0.0359753113 C127.198908,-0.384374336 121.212054,2.71925839 117.939655,8.08838662 L2.63252565,194.847143 C-0.947129465,200.604248 -0.871814894,207.912774 2.8257217,213.594888 L59.2003287,300.896318 C63.5805009,307.626626 71.8282454,310.673635 79.5873549,308.384597 L243.165728,260.936772 C249.062055,259.207324 253.762136,254.926864 255.928478,249.219691 C258.070895,243.492262 257.287859,237.016723 254.312882,235.518775 Z M230.511129,245.201039 L91.6881763,285.679846 C87.4332772,286.84952 83.0123945,284.745597 81.5095439,280.655414 C80.0066934,276.565232 81.7644202,272.012322 85.7832333,270.217357 L193.426634,214.275363 C195.236152,213.332546 196.255261,211.431939 196.045438,209.460327 C195.835615,207.488714 194.43085,205.8362 192.55265,205.280705 L99.8730757,181.345302 C96.1885251,180.280672 93.8292459,176.816968 94.0580662,172.955513 C94.2868865,169.094059 97.0367278,165.94191 100.822697,165.347615 L205.823935,149.260831 C208.77026,148.789654 211.001346,146.042212 210.821001,142.947493 C210.640657,139.852773 208.125772,137.391221 205.120649,137.337859 L98.8953854,135.755323 C95.0935781,135.683858 92.1236485,132.709913 92.0695154,128.896839 C92.0153823,125.083764 94.8983678,121.99802 98.6965889,121.806707 L207.955755,115.758863 C211.162306,115.599176 213.884138,113.362787 214.473257,110.265626 C215.062375,107.168464 213.354577,104.060612 210.445186,102.835965 L113.83124,66.9557701 C110.756833,65.6488805 108.997494,62.4195991 109.506502,59.1814034 C110.01551,55.9432077 112.669853,53.4623212 115.953163,53.1421256 L210.664513,43.5468249 C214.41564,43.1822296 217.283432,40.0465511 217.326895,36.2589745 C217.370358,32.4713979 214.572277,29.2723154 210.832228,28.8351682 L131.791182,19.3577615 C127.941498,18.9043659 125.069049,15.7074434 125.024675,11.8126267 C124.980301,7.91781 127.777683,4.65463006 131.611716,4.11678234 L140.624745,2.78947962 C141.478742,2.65075657 142.348118,2.66648375 143.195927,2.83559218 C144.04374,3.00470075 144.855732,3.32442637 145.590666,3.77873605 C146.325602,4.23304587 146.972641,4.81477892 147.498333,5.49642326 C148.024026,6.17806774 148.419831,6.94752032 148.66749,7.76719714 L247.916314,219.780088 C248.572145,221.558882 248.423206,223.526751 247.510189,225.186015 C246.597172,226.845279 245.013989,228.030861 243.165728,228.419772 L87.1731973,273.873332 C83.3205111,274.859659 79.3639117,273.329167 77.1116276,270.073132 C74.8593434,266.817097 74.8593434,262.559559 77.1116276,259.303524 L144.265805,152.315276 C145.213151,150.812785 145.213151,148.897611 144.265805,147.39512 C143.318459,145.892629 141.591101,145.037159 139.795571,145.192647 L70.8027114,150.732676 C67.2786621,151.029571 63.9060734,149.056405 62.4317663,145.847299 L37.3359174,90.2381134 C35.8381886,86.9811635 36.5647324,83.1984557 39.1428726,80.6861506 L82.5478289,38.4542085 C84.3900147,36.6557125 87.0988516,36.0733846 89.5017123,36.9874874 L209.406387,86.1220519 C213.384894,87.6449182 214.936741,92.4436471 212.766526,96.1351429 C210.596311,99.8266388 205.658033,100.845153 202.286294,98.2522376 L100.822697,33.2736502 C98.0547999,31.6087355 94.4897023,31.9095931 92.0231387,34.0189114 C89.5565751,36.1282297 88.6572933,39.6292554 89.7918333,42.7013674 L117.939655,115.758863 C119.293317,119.391518 117.744363,123.433986 114.36222,125.23032 C110.980077,127.026654 106.749714,126.059356 104.47349,122.961031 L53.8090267,47.8998574 C51.5328026,44.8015321 47.3024706,43.8342235 43.9203744,45.6306859 C40.5382782,47.4271482 38.8458752,51.4281866 40.0853566,55.0376471 L75.8579268,149.260831 C77.2116628,152.992499 75.7486928,157.127624 72.3665966,159.097648 C68.9845004,161.067672 64.6888023,160.300051 62.1754783,157.228673 L16.0573837,99.0263213 C13.5440597,95.9549432 9.24836167,95.1873224 5.86626547,97.1573462 C2.48416927,99.1273701 1.02119927,103.262495 2.37493525,106.994163 L54.8953854,243.703233 C55.9879681,246.975862 58.8940839,249.256523 62.3317663,249.459495 L222.872183,264.440758 C226.767318,264.673899 230.259551,262.077711 231.086609,258.274238 C231.913667,254.470766 229.845626,250.645272 226.199756,249.219691 L230.511129,245.201039 Z" fill="#2D3748"></path>
    </g>
</svg>
