<?xml version="1.0" encoding="UTF-8"?>
<svg width="256px" height="256px" viewBox="0 0 256 256" version="1.1" xmlns="http://www.w3.org/2000/svg" xmlns:xlink="http://www.w3.org/1999/xlink" preserveAspectRatio="xMidYMid">
    <g>
        <path d="M128,0 C198.692448,0 256,57.307552 256,128 C256,198.692448 198.692448,256 128,256 C57.307552,256 0,198.692448 0,128 C0,57.307552 57.307552,0 128,0 Z M128,24.381072 C70.8325184,24.381072 24.381072,70.8325184 24.381072,128 C24.381072,185.167482 70.8325184,231.618928 128,231.618928 C185.167482,231.618928 231.618928,185.167482 231.618928,128 C231.618928,70.8325184 185.167482,24.381072 128,24.381072 Z M128,73.142912 C158.072064,73.142912 182.857088,97.927936 182.857088,128 C182.857088,158.072064 158.072064,182.857088 128,182.857088 C97.927936,182.857088 73.142912,158.072064 73.142912,128 C73.142912,97.927936 97.927936,73.142912 128,73.142912 Z" fill="#000000"></path>
    </g>
</svg>
