<?xml version="1.0" encoding="UTF-8"?>
<svg width="256px" height="256px" viewBox="0 0 256 256" version="1.1" xmlns="http://www.w3.org/2000/svg" preserveAspectRatio="xMidYMid">
    <title>TypeScript</title>
    <g>
        <rect fill="#3178C6" x="0" y="0" width="256" height="256" rx="28"></rect>
        <path d="M56.6112416,128.210678 L56.6112416,143.447323 L17.9779272,143.447323 L17.9779272,128.210678 L56.6112416,128.210678 Z M142.240961,126.670938 L142.199893,143.38226 L112.956878,143.38226 L112.956878,198.260325 L91.3927392,198.260325 L91.3927392,143.38226 L62.1907419,143.38226 L62.1907419,126.934239 C62.1907419,126.670938 62.3935248,126.407636 62.8401735,126.144334 C63.2457392,125.881033 63.6102219,125.881033 63.9747046,125.881033 L142.199893,125.881033 C142.650458,125.881033 143.019025,126.012684 143.305591,126.276451 C143.592157,126.540218 142.240961,126.670938 142.240961,126.670938 Z M238.022073,130.013532 C238.022073,134.355234 237.213168,138.17116 235.636275,141.460875 C234.059382,144.709657 231.853861,147.431778 229.07629,149.627239 C226.298719,151.822699 223.07288,153.399592 219.398774,154.457827 C215.724668,155.516062 211.75837,156.045179 207.55103,156.045179 C203.75907,156.045179 200.008178,155.557129 196.29825,154.622895 C192.588323,153.647728 189.157279,152.216803 186.00519,150.330119 L186.00519,129.197743 C189.03642,131.742066 192.43239,133.77941 196.171115,135.309419 C199.951008,136.839428 203.75907,137.604515 207.55103,137.604515 C209.962418,137.604515 212.045608,137.361213 213.82147,136.874629 C215.597331,136.388044 217.088157,135.698525 218.294115,134.806138 C219.541141,133.913752 220.4956,132.816584 221.166185,131.515624 C221.83677,130.214664 222.172063,128.791673 222.172063,127.246748 C222.172063,125.538686 221.794563,124.033944 221.039562,122.732984 C220.284561,121.432024 219.246411,120.212933 217.925367,119.07571 C216.604323,117.897554 215.038497,116.801452 213.227738,115.746333 C211.416979,114.691214 209.438022,113.615029 207.25837,112.517861 C204.995584,111.38176 202.79395,110.16267 200.674676,108.902776 C198.555402,107.601816 196.70488,106.135807 195.08402,104.505051 C193.50416,102.832361 192.212134,100.992544 191.206051,98.9552002 C190.199967,96.9178563 189.696926,94.5102238 189.696926,91.7326526 C189.696926,87.6394843 190.464945,84.0166046 192.042905,80.8640134 C193.620864,77.7114223 195.737071,75.0714476 198.391411,72.9440894 C201.04575,70.8167313 204.156857,69.1861182 207.72473,68.0488952 C211.292603,66.9116722 215.114613,66.3430607 219.190624,66.3430607 C222.737431,66.3430607 226.24127,66.7897094 229.703142,67.6409237 C233.206981,68.492138 236.584687,69.7630982 239.87926,71.4147971 L239.87926,91.5298697 C238.714104,90.7607412 237.423144,90.0326985 236.05725,89.3457416 C234.649423,88.6587847 233.24753,88.0901732 231.803704,87.6024387 C230.359878,87.1147042 228.916052,86.7482215 227.430159,86.5043528 C225.985367,86.2604841 224.540575,86.1385498 223.137748,86.1385498 C220.89393,86.1385498 218.85455,86.4027753 217.088157,86.9312263 C215.321763,87.4596773 213.82147,88.1877199 212.615512,89.1153771 C211.409554,90.0430343 210.487028,91.1392002 209.857509,92.4401604 C209.22799,93.7411206 208.913231,95.1641116 208.913231,96.7501218 C208.913231,98.2540462 209.24946,99.5960922 209.921983,100.775248 C210.594506,101.954404 211.54999,103.092693 212.78795,104.189861 C214.025909,105.287029 215.515669,106.384197 217.25736,107.481365 C218.999052,108.578533 220.97801,109.717822 223.137748,110.897978 C225.54007,112.075134 227.859525,113.31421 230.096411,114.615171 C232.333297,115.916131 234.32819,117.423939 236.09162,119.138039 C237.85505,120.852139 239.28804,122.813163 240.391592,125.021055 C241.495144,127.228947 242.046921,129.81632 242.046921,132.782175 C242.046921,137.17896 241.237049,141.0359 239.617306,144.357995 C237.997563,147.680091 235.75068,150.454188 232.876657,152.680715 C230.002634,154.907242 226.631861,156.576866 222.76421,157.689352 C218.896559,158.801838 214.76091,159.358081 210.357263,159.358081 C205.91165,159.358081 201.63389,158.72856 197.523984,157.469519 C193.414078,156.210478 189.613184,154.498444 186.00519,152.271917 L186.00519,130.013532 L238.022073,130.013532 Z" fill="#FFFFFF"></path>
    </g>
</svg>
