<?xml version="1.0" encoding="UTF-8"?>
<svg width="256px" height="256px" viewBox="0 0 256 256" version="1.1" xmlns="http://www.w3.org/2000/svg" xmlns:xlink="http://www.w3.org/1999/xlink" preserveAspectRatio="xMidYMid">
    <g>
        <path d="M243.542 105.903c7.147 12.928 11.458 27.629 11.458 43.097 0 50.495-40.935 91.43-91.43 91.43-28.904 0-54.664-13.421-71.382-34.355 10.696 6.563 23.308 10.355 36.812 10.355 50.495 0 91.43-40.935 91.43-91.43 0-6.776-.74-13.378-2.138-19.726l25.25.63Z" fill="#3E67B1"/>
        <path d="M128 15.57c28.904 0 54.664 13.421 71.382 34.355-10.696-6.563-23.308-10.355-36.812-10.355-50.495 0-91.43 40.935-91.43 91.43 0 6.776.74 13.378 2.138 19.726L48.028 150.1c-7.147-12.928-11.458-27.629-11.458-43.097C36.57 56.505 77.505 15.57 128 15.57Z" fill="#0C0C0C"/>
    </g>
</svg>
