<?xml version="1.0" encoding="UTF-8"?>
<svg width="256px" height="256px" viewBox="0 0 256 256" version="1.1" xmlns="http://www.w3.org/2000/svg" xmlns:xlink="http://www.w3.org/1999/xlink" preserveAspectRatio="xMidYMid">
    <g>
        <path d="M128 0C57.308 0 0 57.308 0 128s57.308 128 128 128 128-57.308 128-128S198.692 0 128 0Zm58.084 167.936c-9.154 15.853-26.336 25.591-44.772 25.591-28.904 0-52.312-23.408-52.312-52.312 0-18.436 9.738-35.618 25.591-44.772 3.61-2.083 8.246-.835 10.329 2.775 2.083 3.61.835 8.246-2.775 10.329-11.243 6.493-18.145 18.436-18.145 31.668 0 20.519 16.688 37.207 37.207 37.207 13.232 0 25.175-6.902 31.668-18.145 2.083-3.61 6.719-4.858 10.329-2.775 3.61 2.083 4.858 6.719 2.775 10.329l.105.105Z" fill="#000000"/>
    </g>
</svg>
